<?xml version="1.0" standalone="no"?><!DOCTYPE svg PUBLIC "-//W3C//DTD SVG 1.1//EN" "http://www.w3.org/Graphics/SVG/1.1/DTD/svg11.dtd"><svg t="1547695996852" class="icon" style="" viewBox="0 0 1024 1024" version="1.1" xmlns="http://www.w3.org/2000/svg" p-id="16677" xmlns:xlink="http://www.w3.org/1999/xlink" width="200" height="200"><defs><style type="text/css"></style></defs><path d="M238.178462 564.598154l551.384615 0 0-315.076923-551.384615 0L238.178462 564.598154zM277.563077 288.905846l472.615385 0 0 236.307692-472.615385 0L277.563077 288.905846z" p-id="16678"></path><path d="M985.777231 775.975385c-0.768-2.796308-2.126769-5.376-4.036923-7.581538l-118.153846-137.846154c-1.004308-1.181538-2.284308-1.851077-3.485538-2.737231 5.080615-6.636308 8.231385-14.848 8.231385-23.847385l0-393.846154c0-21.740308-17.644308-39.384615-39.384615-39.384615l-630.153846 0c-21.76 0-39.384615 17.644308-39.384615 39.384615l0 393.846154c0 3.879385 0.728615 7.542154 1.772308 11.067077L45.095385 789.228308c-2.244923 3.052308-21.543385 30.641231-7.266462 57.521231 11.815385 22.291692 40.999385 33.181538 89.048615 33.181538 4.391385 0 8.920615-0.078769 13.607385-0.275692 123.904-4.745846 780.169846-0.019692 787.908923 0 4.273231-0.216615 42.180923-2.875077 56.024615-30.562462C997.612308 822.685538 987.864615 783.556923 985.777231 775.975385zM198.793846 210.136615l630.153846 0 0 393.846154-630.153846 0L198.793846 210.136615zM949.169231 831.488c-2.382769 4.765538-14.907077 8.369231-21.622154 8.802462-27.057231-0.216615-663.808-4.824615-788.598154 0.019692-46.158769 1.614769-63.468308-6.695385-66.323692-11.953231-2.107077-3.879385 1.811692-12.425846 4.706462-16.521846l112.955077-169.432615c2.737231 0.610462 5.572923 0.964923 8.507077 0.964923l630.153846 0c0.078769 0 0.137846-0.019692 0.216615-0.019692 0 4.529231 1.319385 9.117538 4.529231 12.819692l115.101538 134.301538C951.670154 803.406769 953.501538 822.843077 949.169231 831.488z" p-id="16679"></path><path d="M435.101538 702.444308 415.409231 781.213538 632.024615 781.213538 592.64 702.444308Z" p-id="16680"></path></svg>