<?xml version="1.0" standalone="no"?><!DOCTYPE svg PUBLIC "-//W3C//DTD SVG 1.1//EN" "http://www.w3.org/Graphics/SVG/1.1/DTD/svg11.dtd"><svg t="1547696015514" class="icon" style="" viewBox="0 0 1024 1024" version="1.1" xmlns="http://www.w3.org/2000/svg" p-id="17149" xmlns:xlink="http://www.w3.org/1999/xlink" width="200" height="200"><defs><style type="text/css"></style></defs><path d="M442.978462 23.197538c-10.870154 0-19.692308 8.822154-19.692308 19.692308l0 315.076923-78.769231 0 0-315.076923c0-10.870154-8.822154-19.692308-19.692308-19.692308s-19.692308 8.822154-19.692308 19.692308l0 315.076923-78.769231 0 0-315.076923c0-10.870154-8.822154-19.692308-19.692308-19.692308s-19.692308 8.822154-19.692308 19.692308l0 334.769231c0 10.870154 8.822154 19.692308 19.692308 19.692308l98.461538 0 0 220.219077c-22.902154 8.132923-39.384615 29.774769-39.384615 55.453538l0 256c0 32.630154 26.446769 59.076923 59.076923 59.076923s59.076923-26.446769 59.076923-59.076923l0-256c0-25.678769-16.482462-47.320615-39.384615-55.453538L344.516923 397.351385l98.461538 0c10.870154 0 19.692308-8.822154 19.692308-19.692308l0-334.769231C462.670769 32.019692 453.848615 23.197538 442.978462 23.197538zM344.516923 929.043692c0 10.850462-8.841846 19.692308-19.692308 19.692308-10.850462 0-19.692308-8.841846-19.692308-19.692308l0-256c0-10.850462 8.841846-19.692308 19.692308-19.692308 10.850462 0 19.692308 8.841846 19.692308 19.692308L344.516923 929.043692z" p-id="17150"></path><path d="M817.132308 495.812923l0-452.923077-137.846154 0c-32.630154 0-59.076923 26.446769-59.076923 59.076923l0 354.461538c0 32.630154 26.446769 59.076923 59.076923 59.076923l98.461538 0 0 102.084923c-6.183385-2.205538-12.760615-3.623385-19.692308-3.623385-32.630154 0-59.076923 26.446769-59.076923 59.076923l0 256c0 32.630154 26.446769 59.076923 59.076923 59.076923s59.076923-26.446769 59.076923-59.076923L817.132308 711.601231C817.132308 711.601231 817.132308 495.812923 817.132308 495.812923zM777.747692 476.120615l-98.461538 0c-10.850462 0-19.692308-8.841846-19.692308-19.692308l0-354.461538c0-10.850462 8.841846-19.692308 19.692308-19.692308l98.461538 0L777.747692 476.120615zM777.747692 929.043692c0 10.850462-8.841846 19.692308-19.692308 19.692308-10.850462 0-19.692308-8.841846-19.692308-19.692308l0-256c0-10.850462 8.841846-19.692308 19.692308-19.692308 10.850462 0 19.692308 8.841846 19.692308 19.692308L777.747692 929.043692z" p-id="17151"></path></svg>