<?xml version="1.0" standalone="no"?><!DOCTYPE svg PUBLIC "-//W3C//DTD SVG 1.1//EN" "http://www.w3.org/Graphics/SVG/1.1/DTD/svg11.dtd"><svg t="1547695972129" class="icon" style="" viewBox="0 0 1211 1024" version="1.1" xmlns="http://www.w3.org/2000/svg" p-id="15855" xmlns:xlink="http://www.w3.org/1999/xlink" width="236.5234375" height="200"><defs><style type="text/css"></style></defs><path d="M300.623853 469.724771c-93.390679 0-169.100917-75.710239-169.100917-169.100918s75.710239-169.100917 169.100917-169.100917 169.100917 75.710239 169.100918 169.100917-75.710239 169.100917-169.100918 169.100918z m0-56.366973c62.257321 0 112.733945-50.476624 112.733945-112.733945s-50.476624-112.733945-112.733945-112.733945-112.733945 50.476624-112.733945 112.733945 50.476624 112.733945 112.733945 112.733945z" p-id="15856"></path><path d="M338.136073 57.654018h-76.189357C145.614679 89.332257 79.571376 156.10833 59.739596 260.697248v92.977321c37.97255 114.650422 108.600367 181.238606 214.175707 203.052624h57.964036c8.455046 0 38.254385-7.562569 84.371964-22.264954l359.198532-98.426129V173.14055L338.136073 57.654018z m-6.256734 555.449542h-60.782385a28.183486 28.183486 0 0 1-5.49578-0.544881C136.520807 586.949284 48.757431 503.864367 4.716037 366.77989a28.183486 28.183486 0 0 1-1.343413-8.614752v-100.051377a28.183486 28.183486 0 0 1 0.450936-5.044844C27.337982 123.71611 111.174459 39.156257 251.039706 2.217101a28.183486 28.183486 0 0 1 7.196184-0.93945h83.564037a28.183486 28.183486 0 0 1 7.196183 0.93945l461.833395 121.968734a28.183486 28.183486 0 0 1 20.987302 27.244037v306.119633a28.183486 28.183486 0 0 1-20.743046 27.178275L432.813798 588.358459c-52.261578 16.637651-84.249835 24.745101-100.934459 24.745101z" p-id="15857"></path><path d="M122.532404 534.969541a28.183486 28.183486 0 0 1 56.366972-0.638825c0.873688 78.162202-4.979083 137.798459-18.05622 179.632146-17.774385 56.817908-36.723083 146.084404-36.723083 172.144734v2.978055c-0.037578 17.755596 0.432147 27.713761 2.442569 38.799266 4.603303 25.383927 14.054165 36.056073 35.774239 36.056074h204.621504c21.644917 0.018789 26.980991-14.721174 11.235817-70.120514-2.480147-8.736881-11.602202-39.691743-13.584441-46.671853-4.922716-17.379817-8.267156-30.851523-10.747302-44.163523-13.189872-70.721761 0.507303-137.225394 56.075743-255.558459a28.183486 28.183486 0 1 1 51.01211 23.955964c-50.974532 108.581578-62.370055 163.915156-51.669725 221.26855 2.104367 11.329761 5.063633 23.260771 9.554202 39.118679 1.878899 6.613725 10.99156 37.549798 13.575046 46.634275 24.453872 86.025394 4.208734 141.950826-65.479633 141.903853H162.336881c-53.135266 0-82.276991-32.880734-91.23934-82.370935-2.790165-15.435156-3.391413-27.948624-3.34444-48.973505v-2.855927c0-33.162569 19.944514-127.116917 39.28778-188.970275 10.99156-35.107229 16.308844-89.407413 15.491523-162.16778zM912.46855 220.845798a28.183486 28.183486 0 0 1-40.39633-39.306569c27.413138-28.174092 54.826275-43.38378 83.028551-43.383779 4.396624 0 8.765064 0.450936 13.133504 1.315229 8.154422 1.597064 15.876697 4.481174 24.782679 8.802642 3.100183 1.503119 6.144 3.072 10.362129 5.317285l4.93211 2.630458c1.907083 1.033394 3.382018 1.803743 4.819376 2.555303 19.127193 9.976954 32.420404 14.232661 49.123816 14.232661 13.838092 0 23.965358-1.559486 30.090569-4.124184 2.968661-1.240073 3.419596-1.681615 3.494752-1.907083a28.183486 28.183486 0 0 1 53.417101 17.999854c-10.568807 31.358826-41.739743 44.398385-87.002422 44.398385-27.413138 0-48.748037-6.820404-75.193541-20.620917-28.202275-14.71178-24.613578-12.973798-29.724183-13.97901a11.630385 11.630385 0 0 0-2.23589-0.253651c-10.362128 0-24.829651 8.022899-42.632221 26.323376zM1042.206532 324.016147c-25.712734-13.509284-43.853505-19.606312-63.422238-19.606312-26.905835 0-37.577982 7.102239-41.016367 23.326532a28.183486 28.183486 0 0 1-55.145688-11.696147c9.48844-44.661431 44.529908-67.997358 96.162055-67.997358 30.701211 0 56.526679 8.680514 89.623486 26.060331 38.226202 20.076037 37.220991 19.606312 41.824293 19.606312 12.081321 0 27.648-7.562569 46.333652-24.406899a28.183486 28.183486 0 0 1 37.747082 41.852477c-28.136514 25.365138-56.028771 38.921394-84.080734 38.921394-11.931009 0-23.288954-3.419596-36.910972-9.798459a321.855413 321.855413 0 0 1-15.688807-7.985321l-7.703487-4.171156c-3.100183-1.662826-5.430018-2.912294-7.722275-4.105394zM910.072954 457.558899a28.183486 28.183486 0 0 1-34.646899-44.464147c27.08433-21.090642 52.646752-32.317064 77.36367-32.317064 10.258789 0 20.301505 2.498936 32.110385 7.139817 4.152367 1.634642 8.445651 3.494752 13.762936 5.937321 2.602275 1.193101 11.649174 5.411229 13.227449 6.134605 21.485211 9.911193 34.449615 14.044771 46.64367 14.044771 18.366239 0 31.65945-6.773431 42.491303-21.663707a28.183486 28.183486 0 1 1 45.572697 33.162569c-21.438239 29.461138-51.669725 44.86811-88.064 44.86811-22.640734 0-41.805505-6.106422-70.252037-19.221137-26.417321-12.184661-31.142752-14.044771-35.492403-14.044771-10.193028 0-24.651156 6.350679-42.716771 20.423633z" p-id="15858"></path></svg>