<?xml version="1.0" standalone="no"?><!DOCTYPE svg PUBLIC "-//W3C//DTD SVG 1.1//EN" "http://www.w3.org/Graphics/SVG/1.1/DTD/svg11.dtd"><svg t="1547695887933" class="icon" style="" viewBox="0 0 1024 1024" version="1.1" xmlns="http://www.w3.org/2000/svg" p-id="15391" xmlns:xlink="http://www.w3.org/1999/xlink" width="200" height="200"><defs><style type="text/css"></style></defs><path d="M986.56711111 285.01333333c-7.62311111 0-15.36-2.50311111-21.73155556-7.85066666-62.464-51.54133333-132.55111111-91.59111111-208.3271111-119.35288889-78.50666667-28.672-161.10933333-43.23555555-245.53244445-43.23555556-84.19555555 0-166.57066667 14.44977778-244.84977778 42.89422223-75.66222222 27.53422222-145.63555555 67.47022222-207.98577777 118.67022222-14.56355555 11.94666667-36.06755555 9.89866667-48.01422223-4.66488889-11.94666667-14.56355555-9.89866667-36.06755555 4.66488889-48.01422223 68.38044445-56.09244445 145.06666667-99.89688889 227.89688889-130.048 85.78844445-31.28888889 176.01422222-47.104 268.17422222-47.104 92.50133333 0 182.95466667 15.92888889 268.97066667 47.33155556 83.05777778 30.37866667 159.97155555 74.41066667 228.352 130.73066667 14.56355555 11.94666667 16.61155555 33.45066667 4.66488889 48.01422222-6.71288889 8.41955555-16.49777778 12.62933333-26.28266667 12.62933333z" p-id="15392"></path><path d="M859.136 447.03288889c-7.73688889 0-15.58755555-2.61688889-21.95911111-8.07822222-44.60088889-37.66044445-94.89066667-67.01511111-149.39022222-87.26755556-56.43377778-21.04888889-115.93955555-31.63022222-176.81066667-31.63022222-60.64355555 0-120.03555555 10.58133333-176.24177778 31.40266666-54.38577778 20.13866667-104.56177778 49.37955555-149.04888889 86.69866667-14.44977778 12.17422222-35.95377778 10.24-48.128-4.20977777-12.17422222-14.44977778-10.24-35.95377778 4.20977778-48.128 50.51733333-42.43911111 107.52-75.54844445 169.18755556-98.53155556 63.94311111-23.66577778 131.18577778-35.72622222 200.02133333-35.72622222 69.06311111 0 136.53333333 12.06044445 200.59022222 35.95377778 61.89511111 22.98311111 119.01155555 56.32 169.64266667 99.10044444 14.44977778 12.17422222 16.27022222 33.67822222 4.096 48.128-6.82666667 8.192-16.49777778 12.288-26.16888889 12.288zM728.40533333 606.43555555c-7.96444445 0-15.92888889-2.73066667-22.30044444-8.30577777-54.04444445-46.76266667-123.33511111-72.59022222-195.12888889-72.59022223-71.33866667 0-140.288 25.48622222-194.21866667 71.79377778-14.336 12.288-35.84 10.69511111-48.128-3.64088888-12.288-14.336-10.69511111-35.84 3.64088889-48.128 66.21866667-56.88888889 150.98311111-88.17777778 238.70577778-88.17777778 88.29155555 0 173.39733333 31.63022222 239.84355555 89.20177778 14.22222222 12.288 15.81511111 33.90577778 3.41333334 48.128-6.71288889 7.73688889-16.27022222 11.71911111-25.82755556 11.7191111zM510.976 977.57866667c-87.26755555 0-158.26488889-70.656-158.26488889-157.46844445s70.99733333-157.46844445 158.26488889-157.46844444c87.26755555 0 158.26488889 70.656 158.26488889 157.46844444s-70.99733333 157.46844445-158.26488889 157.46844445z m0-246.55644445c-49.60711111 0-89.99822222 39.936-89.99822222 89.20177778s40.39111111 89.20177778 89.99822222 89.20177778c49.60711111 0 89.99822222-39.936 89.99822222-89.20177778s-40.39111111-89.20177778-89.99822222-89.20177778z" p-id="15393"></path></svg>