<?xml version="1.0" standalone="no"?><!DOCTYPE svg PUBLIC "-//W3C//DTD SVG 1.1//EN" "http://www.w3.org/Graphics/SVG/1.1/DTD/svg11.dtd"><svg t="1547695991262" class="icon" style="" viewBox="0 0 1024 1024" version="1.1" xmlns="http://www.w3.org/2000/svg" p-id="16442" xmlns:xlink="http://www.w3.org/1999/xlink" width="200" height="200"><defs><style type="text/css"></style></defs><path d="M669.44 239.812923l-315.076923 0c-65.260308 0-118.153846 52.893538-118.153846 118.153846l0 512c0 65.260308 52.893538 118.153846 118.153846 118.153846l315.076923 0c65.260308 0 118.153846-52.893538 118.153846-118.153846l0-512C787.593846 292.706462 734.700308 239.812923 669.44 239.812923zM748.209231 869.966769c0 43.441231-35.328 78.769231-78.769231 78.769231l-315.076923 0c-43.441231 0-78.769231-35.328-78.769231-78.769231l0-512c0-43.441231 35.328-78.769231 78.769231-78.769231l315.076923 0c43.441231 0 78.769231 35.328 78.769231 78.769231L748.209231 869.966769z" p-id="16443"></path><path d="M689.132308 377.659077l-354.461538 0c-10.870154 0-19.692308 8.822154-19.692308 19.692308s8.822154 19.692308 19.692308 19.692308l354.461538 0c10.889846 0 19.692308-8.822154 19.692308-19.692308S700.022154 377.659077 689.132308 377.659077z" p-id="16444"></path><path d="M630.055385 141.351385c0-54.390154-44.091077-98.461538-98.461538-98.461538l-39.384615 0c-54.370462 0-98.461538 44.071385-98.461538 98.461538l0 59.076923 236.307692 0L630.055385 141.351385zM590.670769 161.043692l-157.538462 0 0-19.692308c0-32.571077 26.505846-59.076923 59.076923-59.076923l39.384615 0c32.571077 0 59.076923 26.505846 59.076923 59.076923L590.670769 161.043692z" p-id="16445"></path></svg>