<?xml version="1.0" standalone="no"?><!DOCTYPE svg PUBLIC "-//W3C//DTD SVG 1.1//EN" "http://www.w3.org/Graphics/SVG/1.1/DTD/svg11.dtd"><svg t="1547695966829" class="icon" style="" viewBox="0 0 1024 1024" version="1.1" xmlns="http://www.w3.org/2000/svg" p-id="15746" xmlns:xlink="http://www.w3.org/1999/xlink" width="200" height="200"><defs><style type="text/css"></style></defs><path d="M170.666667 341.333333v512a28.444444 28.444444 0 0 0 28.444444 28.444445h625.777778a28.444444 28.444444 0 0 0 28.444444-28.444445V170.666667a28.444444 28.444444 0 0 0-28.444444-28.444445H199.111111a28.444444 28.444444 0 0 0-28.444444 28.444445v113.777777h682.666666v56.888889H170.666667z m28.444444-256h625.777778a85.333333 85.333333 0 0 1 85.333333 85.333334v682.666666a85.333333 85.333333 0 0 1-85.333333 85.333334H199.111111a85.333333 85.333333 0 0 1-85.333333-85.333334V170.666667a85.333333 85.333333 0 0 1 85.333333-85.333334z m312.888889 753.777778a227.555556 227.555556 0 1 1 0-455.111111 227.555556 227.555556 0 0 1 0 455.111111z m0-56.888889a170.666667 170.666667 0 1 0 0-341.333333 170.666667 170.666667 0 0 0 0 341.333333zM270.222222 256a42.666667 42.666667 0 1 1 0-85.333333 42.666667 42.666667 0 0 1 0 85.333333z m142.222222 0a42.666667 42.666667 0 1 1 0-85.333333 42.666667 42.666667 0 0 1 0 85.333333z" p-id="15747"></path></svg>