<?xml version="1.0" standalone="no"?><!DOCTYPE svg PUBLIC "-//W3C//DTD SVG 1.1//EN" "http://www.w3.org/Graphics/SVG/1.1/DTD/svg11.dtd"><svg t="1547696002995" class="icon" style="" viewBox="0 0 1024 1024" version="1.1" xmlns="http://www.w3.org/2000/svg" p-id="16909" xmlns:xlink="http://www.w3.org/1999/xlink" width="200" height="200"><defs><style type="text/css"></style></defs><path d="M925.44 82.274462c10.850462 0 19.692308 8.841846 19.692308 19.692308l0 827.076923c0 10.850462-8.841846 19.692308-19.692308 19.692308l-827.076923 0c-10.850462 0-19.692308-8.841846-19.692308-19.692308l0-827.076923c0-10.850462 8.841846-19.692308 19.692308-19.692308L925.44 82.274462M925.44 42.889846l-827.076923 0c-32.630154 0-59.076923 26.446769-59.076923 59.076923l0 827.076923c0 32.630154 26.446769 59.076923 59.076923 59.076923l827.076923 0c32.630154 0 59.076923-26.446769 59.076923-59.076923l0-827.076923C984.516923 69.336615 958.070154 42.889846 925.44 42.889846L925.44 42.889846z" p-id="16910"></path><path d="M177.132308 161.043692c10.850462 0 19.692308 8.841846 19.692308 19.692308s-8.841846 19.692308-19.692308 19.692308-19.692308-8.841846-19.692308-19.692308S166.281846 161.043692 177.132308 161.043692M177.132308 121.659077c-32.630154 0-59.076923 26.446769-59.076923 59.076923s26.446769 59.076923 59.076923 59.076923 59.076923-26.446769 59.076923-59.076923S209.762462 121.659077 177.132308 121.659077L177.132308 121.659077z" p-id="16911"></path><path d="M334.670769 161.043692c10.850462 0 19.692308 8.841846 19.692308 19.692308s-8.841846 19.692308-19.692308 19.692308-19.692308-8.841846-19.692308-19.692308S323.820308 161.043692 334.670769 161.043692M334.670769 121.659077c-32.630154 0-59.076923 26.446769-59.076923 59.076923s26.446769 59.076923 59.076923 59.076923 59.076923-26.446769 59.076923-59.076923S367.300923 121.659077 334.670769 121.659077L334.670769 121.659077z" p-id="16912"></path><path d="M511.901538 318.582154c152.024615 0 275.692308 123.667692 275.692308 275.692308s-123.667692 275.692308-275.692308 275.692308-275.692308-123.667692-275.692308-275.692308S359.876923 318.582154 511.901538 318.582154M511.901538 279.197538c-174.020923 0-315.076923 141.056-315.076923 315.076923s141.056 315.076923 315.076923 315.076923 315.076923-141.056 315.076923-315.076923S685.922462 279.197538 511.901538 279.197538L511.901538 279.197538z" p-id="16913"></path><path d="M617.550769 568.516923c-31.822769 0-72.211692-12.780308-120.635077-38.281846-121.245538-63.783385-163.465846-19.003077-163.859692-18.550154-7.128615 7.936-19.475692 8.979692-27.608615 2.048-8.132923-6.931692-9.432615-18.865231-2.697846-27.175385 2.382769-2.934154 60.238769-71.286154 212.519385 8.861538 77.528615 40.802462 110.670769 34.993231 121.324308 30.562462 6.971077-2.875077 9.708308-7.227077 9.708308-7.266462 3.229538-10.397538 14.336-16.147692 24.674462-12.937846 10.377846 3.249231 16.167385 14.276923 12.937846 24.654769-0.689231 2.185846-7.384615 21.661538-32.295385 31.940923C641.673846 566.468923 630.311385 568.516923 617.550769 568.516923z" p-id="16914"></path><path d="M617.550769 706.363077c-31.822769 0.019692-72.211692-12.780308-120.635077-38.281846-121.225846-63.803077-163.426462-19.003077-163.859692-18.530462-7.128615 7.916308-19.495385 8.979692-27.588923 2.048-8.132923-6.931692-9.432615-18.865231-2.717538-27.175385 2.382769-2.934154 60.238769-71.305846 212.519385 8.822154 72.605538 38.222769 106.102154 35.899077 119.650462 31.212308 9.019077-3.170462 11.441231-8.231385 11.697231-8.782769 3.268923-10.377846 14.178462-15.714462 24.516923-12.504615 10.377846 3.229538 16.009846 14.710154 12.780308 25.088-0.689231 2.185846-7.384615 21.661538-32.295385 31.960615C641.673846 704.334769 630.291692 706.363077 617.550769 706.363077z" p-id="16915"></path></svg>