<?xml version="1.0" standalone="no"?><!DOCTYPE svg PUBLIC "-//W3C//DTD SVG 1.1//EN" "http://www.w3.org/Graphics/SVG/1.1/DTD/svg11.dtd"><svg t="1547695986419" class="icon" style="" viewBox="0 0 1024 1024" version="1.1" xmlns="http://www.w3.org/2000/svg" p-id="16316" xmlns:xlink="http://www.w3.org/1999/xlink" width="200" height="200"><defs><style type="text/css"></style></defs><path d="M511.901538 42.889846c-261.021538 0-472.615385 211.593846-472.615385 472.615385s211.593846 472.615385 472.615385 472.615385 472.615385-211.593846 472.615385-472.615385S772.923077 42.889846 511.901538 42.889846zM511.901538 948.736c-238.887385 0-433.230769-194.343385-433.230769-433.230769 0-238.887385 194.343385-433.230769 433.230769-433.230769s433.230769 194.343385 433.230769 433.230769C945.132308 754.392615 750.788923 948.736 511.901538 948.736z" p-id="16317"></path><path d="M708.824615 515.505231c0-108.760615-88.162462-196.923077-196.923077-196.923077s-196.923077 88.162462-196.923077 196.923077 88.162462 196.923077 196.923077 196.923077S708.824615 624.265846 708.824615 515.505231zM511.901538 673.043692c-86.862769 0-157.538462-70.675692-157.538462-157.538462 0-86.862769 70.675692-157.538462 157.538462-157.538462s157.538462 70.675692 157.538462 157.538462C669.44 602.368 598.764308 673.043692 511.901538 673.043692z" p-id="16318"></path><path d="M511.901538 397.351385c-65.260308 0-118.153846 52.893538-118.153846 118.153846 0 65.260308 52.893538 118.153846 118.153846 118.153846 65.260308 0 118.153846-52.893538 118.153846-118.153846C630.055385 450.244923 577.161846 397.351385 511.901538 397.351385zM511.901538 594.274462c-43.441231 0-78.769231-35.328-78.769231-78.769231s35.328-78.769231 78.769231-78.769231 78.769231 35.328 78.769231 78.769231S555.342769 594.274462 511.901538 594.274462z" p-id="16319"></path><path d="M866.363077 515.505231m-39.384615 0a2 2 0 1 0 78.769231 0 2 2 0 1 0-78.769231 0Z" p-id="16320"></path><path d="M146.707692 354.776615c3.308308 2.166154 7.030154 3.190154 10.712615 3.190154 6.439385 0 12.740923-3.150769 16.521846-8.96 0.945231-1.437538 95.350154-145.033846 185.462154-168.940308 10.515692-2.796308 16.777846-13.568 13.981538-24.083692s-13.548308-16.797538-24.083692-13.981538c-104.763077 27.785846-204.209231 179.101538-208.384 185.521231C135.010462 336.659692 137.590154 348.849231 146.707692 354.776615z" p-id="16321"></path><path d="M200.073846 366.828308c-5.986462 9.078154-3.465846 21.287385 5.612308 27.273846 3.328 2.185846 7.089231 3.249231 10.811077 3.249231 6.4 0 12.681846-3.111385 16.462769-8.861538 0.846769-1.28 85.385846-128.275692 165.769846-149.326769 10.515692-2.756923 16.817231-13.528615 14.060308-24.044308-2.756923-10.496-13.430154-16.817231-24.044308-14.060308C293.769846 225.949538 203.854769 361.078154 200.073846 366.828308z" p-id="16322"></path><path d="M662.035692 167.620923c1.457231 0.905846 147.495385 91.254154 173.863385 180.873846 2.520615 8.585846 10.358154 14.139077 18.884923 14.139077 1.831385 0 3.702154-0.275692 5.553231-0.807385 10.436923-3.072 16.403692-14.020923 13.331692-24.457846-30.601846-103.995077-184.516923-199.325538-191.054769-203.323077-9.275077-5.710769-21.405538-2.776615-27.076923 6.498462C649.846154 149.799385 652.760615 161.929846 662.035692 167.620923z" p-id="16323"></path><path d="M624.147692 227.682462c1.299692 0.807385 130.461538 81.762462 153.737846 161.713231 2.500923 8.605538 10.358154 14.198154 18.904615 14.198154 1.811692 0 3.682462-0.256 5.494154-0.807385 10.436923-3.032615 16.443077-13.961846 13.410462-24.398769-27.431385-94.286769-164.923077-180.539077-170.771692-184.182154-9.235692-5.750154-21.385846-2.875077-27.116308 6.340923C612.076308 209.801846 614.912 221.932308 624.147692 227.682462z" p-id="16324"></path><path d="M873.708308 665.993846c-9.412923-5.513846-21.444923-2.422154-26.958769 6.971077-0.886154 1.516308-89.718154 150.823385-177.270154 177.664-10.397538 3.190154-16.246154 14.198154-13.056 24.595692 2.599385 8.487385 10.377846 13.922462 18.825846 13.922462 1.910154 0 3.84-0.275692 5.769846-0.866462 102.183385-31.330462 195.721846-188.652308 199.68-195.347692C886.193231 683.579077 883.081846 671.527385 873.708308 665.993846z" p-id="16325"></path><path d="M821.661538 654.414769c5.553231-9.334154 2.500923-21.425231-6.852923-26.998154-9.334154-5.592615-21.425231-2.500923-26.998154 6.852923-22.055385 37.001846-93.538462 137.373538-158.464 157.065846-10.397538 3.150769-16.285538 14.158769-13.134769 24.556308 2.579692 8.507077 10.377846 13.981538 18.845538 13.981538 1.890462 0 3.800615-0.275692 5.710769-0.846769C733.44 800.925538 818.097231 660.401231 821.661538 654.414769z" p-id="16326"></path><path d="M354.855385 850.313846c-1.516308-0.886154-151.197538-89.462154-178.097231-176.797538-3.209846-10.417231-14.257231-16.265846-24.615385-13.036308-10.397538 3.209846-16.226462 14.237538-13.016615 24.615385 31.409231 101.986462 189.124923 195.288615 195.820308 199.207385 3.131077 1.831385 6.557538 2.697846 9.924923 2.697846 6.754462 0 13.351385-3.485538 17.014154-9.728C367.379692 867.879385 364.228923 855.808 354.855385 850.313846z" p-id="16327"></path><path d="M393.629538 791.512615c-37.100308-21.996308-137.708308-93.282462-157.44-158.030769-3.170462-10.417231-14.217846-16.246154-24.576-13.115077-10.397538 3.170462-16.265846 14.178462-13.095385 24.576 28.179692 92.494769 169.019077 176.896 175.005538 180.460308 3.150769 1.870769 6.616615 2.756923 10.023385 2.756923 6.715077 0 13.272615-3.446154 16.955077-9.649231C406.075077 809.156923 402.983385 797.085538 393.629538 791.512615z" p-id="16328"></path></svg>