<?xml version="1.0" standalone="no"?><!DOCTYPE svg PUBLIC "-//W3C//DTD SVG 1.1//EN" "http://www.w3.org/Graphics/SVG/1.1/DTD/svg11.dtd"><svg t="1547695994008" class="icon" style="" viewBox="0 0 1024 1024" version="1.1" xmlns="http://www.w3.org/2000/svg" p-id="16559" xmlns:xlink="http://www.w3.org/1999/xlink" width="200" height="200"><defs><style type="text/css"></style></defs><path d="M92.435692 702.582154l846.769231 0c10.889846 0 19.692308-8.802462 19.692308-19.692308 0-168.605538-83.456-230.104615-87.020308-232.625231-3.347692-2.382769-7.345231-3.662769-11.441231-3.662769L430.769231 446.601846c-3.741538-1.555692-9.117538-4.273231-9.531077-7.384615-2.304-17.427692 42.043077-60.928 85.070769-91.076923l373.819077 0c43.441231 0 78.769231-35.328 78.769231-78.769231s-35.328-78.769231-78.769231-78.769231l-472.615385 0c-0.571077 0-1.024 0.275692-1.575385 0.315077-0.551385 0.039385-1.063385-0.157538-1.614769-0.059077C150.764308 232.507077 76.071385 661.385846 73.019077 679.640615c-0.945231 5.710769 0.649846 11.559385 4.391385 15.990154C81.152 700.022154 86.646154 702.582154 92.435692 702.582154zM409.481846 229.966769l470.646154 0c21.720615 0 39.384615 17.664 39.384615 39.384615s-17.664 39.384615-39.384615 39.384615l-374.153846 0c-0.708923 0-1.319385 0.334769-2.008615 0.413538-4.982154-1.004308-10.338462-0.098462-14.887385 2.993231-26.781538 18.136615-113.624615 81.309538-106.870154 132.214154 1.713231 13.016615 9.826462 30.621538 38.577231 40.546462 2.067692 0.708923 4.233846 1.083077 6.419692 1.083077l426.141538 0c14.788923 13.489231 60.790154 64.354462 65.673846 177.230769L116.420923 663.217231C135.286154 575.212308 215.591385 263.108923 409.481846 229.966769z" p-id="16560"></path><path d="M939.204923 741.966769l-876.307692 0-19.692308 78.769231c0 0 889.442462 0 935.384615 0C991.291077 797.892923 939.204923 741.966769 939.204923 741.966769z" p-id="16561"></path><path d="M683.204923 564.736m-19.692308 0a1 1 0 1 0 39.384615 0 1 1 0 1 0-39.384615 0Z" p-id="16562"></path><path d="M801.358769 564.736m-19.692308 0a1 1 0 1 0 39.384615 0 1 1 0 1 0-39.384615 0Z" p-id="16563"></path></svg>