<?xml version="1.0" standalone="no"?><!DOCTYPE svg PUBLIC "-//W3C//DTD SVG 1.1//EN" "http://www.w3.org/Graphics/SVG/1.1/DTD/svg11.dtd"><svg t="1547695999276" class="icon" style="" viewBox="0 0 1024 1024" version="1.1" xmlns="http://www.w3.org/2000/svg" p-id="16794" xmlns:xlink="http://www.w3.org/1999/xlink" width="200" height="200"><defs><style type="text/css"></style></defs><path d="M974.670769 200.428308l-59.076923 0 0-78.769231c0-55.492923-50.097231-75.716923-76.603077-78.651077-0.728615-0.078769-1.437538-0.118154-2.166154-0.118154l-630.153846 0c-57.737846 0-78.749538 47.104-78.769231 78.769231l0 78.769231-78.769231 0c-10.870154 0-19.692308 8.822154-19.692308 19.692308s8.822154 19.692308 19.692308 19.692308l78.769231 0 0 610.461538c0 37.927385 21.169231 54.449231 33.673846 58.230154 1.851077 0.551385 3.761231 0.846769 5.710769 0.846769L246.153846 909.351385c-0.059077 0.610462-0.078769 1.240615-0.078769 1.870769 0 42.555077 22.409846 67.879385 24.969846 70.616615 3.721846 4.017231 8.96 6.281846 14.414769 6.281846l571.076923 0c22.390154 0 35.820308-9.117538 43.145846-16.758154 16.502154-17.250462 16.009846-40.566154 15.931077-42.318769l0-689.230769 59.076923 0c10.889846 0 19.692308-8.822154 19.692308-19.692308S985.560615 200.428308 974.670769 200.428308zM167.286154 673.043692l590.769231 0c0 0 0 0 0.019692 0l0 78.769231L167.286154 751.812923 167.286154 673.043692zM876.209231 200.428308l-75.776 0c2.441846-7.660308 6.340923-14.257231 12.091077-19.633231 18.825846-17.624615 50.510769-19.810462 63.684923-19.908923L876.209231 200.428308zM167.286154 121.836308c0.157538-9.275077 3.446154-39.542154 39.384615-39.542154l628.854154 0c7.207385 1.083077 40.585846 7.739077 40.684308 39.227077-18.451692 0.118154-61.558154 3.505231-90.427077 30.365538-18.412308 17.112615-27.726769 40.093538-27.726769 68.253538l0.019692 413.538462c0 0 0 0-0.019692 0l-590.769231 0L167.286154 121.836308zM172.662154 869.966769c-2.048-2.166154-5.356308-7.542154-5.356308-19.692308l0-59.076923 590.788923 0 0 60.002462c0 0.078769-0.078769 9.058462-4.903385 14.139077-2.934154 3.072-7.916308 4.627692-14.808615 4.627692L172.662154 869.966769zM876.209231 929.614769c0.039385 2.599385-0.787692 10.259692-5.100308 14.611692-2.934154 2.973538-7.857231 4.509538-14.592 4.509538l-561.033846 0c-4.273231-7.148308-10.043077-20.027077-10.043077-37.513846 0-0.630154-0.019692-1.240615-0.078769-1.870769l453.001846 0c22.508308 0 35.958154-9.156923 43.303385-16.836923 16.462769-17.250462 15.872-40.566154 15.773538-42.24l0-610.461538 78.769231 0L876.209231 929.614769z" p-id="16795"></path></svg>