<?xml version="1.0" standalone="no"?><!DOCTYPE svg PUBLIC "-//W3C//DTD SVG 1.1//EN" "http://www.w3.org/Graphics/SVG/1.1/DTD/svg11.dtd"><svg t="1547695981047" class="icon" style="" viewBox="0 0 1024 1024" version="1.1" xmlns="http://www.w3.org/2000/svg" p-id="16075" xmlns:xlink="http://www.w3.org/1999/xlink" width="200" height="200"><defs><style type="text/css"></style></defs><path d="M945.482794 271.635707H531.614585L697.90202 23.808216 664.841907 0 482.641208 271.635707h-106.951933L201.506887 9.745332l-33.800265 23.931574 158.269124 237.958801H78.271614a62.357788 62.357788 0 0 0-61.926033 62.666184v627.031924A62.283773 62.283773 0 0 0 78.271614 1024h867.21118a62.283773 62.283773 0 0 0 61.926033-62.666185V334.301891a62.357788 62.357788 0 0 0-61.926033-62.666184z m20.600891 689.698108a20.613227 20.613227 0 0 1-20.600891 20.847609H78.271614a20.687243 20.687243 0 0 1-20.600891-20.847609V334.301891a20.773594 20.773594 0 0 1 20.600891-20.847608l425.093844 0.246717 0.246718-0.246717h441.870618a20.687243 20.687243 0 0 1 20.600891 20.847608v627.031924zM738.980445 397.091435H202.12368a62.283773 62.283773 0 0 0-61.926033 62.666185v376.243826a62.357788 62.357788 0 0 0 61.926033 62.666184h536.856765a62.283773 62.283773 0 0 0 61.926033-62.666184v-376.243826a62.209758 62.209758 0 0 0-61.926033-62.666185z m20.72425 438.910011a20.798265 20.798265 0 0 1-20.72425 20.847608H202.12368a20.773594 20.773594 0 0 1-20.600891-20.847608v-376.243826a20.687243 20.687243 0 0 1 20.600891-20.847609h536.856765a20.711914 20.711914 0 0 1 20.72425 20.847609v376.243826z m123.852066-397.091435z m-41.325142 0a41.325142 41.325142 0 1 0 41.325142-41.818576 41.485508 41.485508 0 0 0-41.325142 41.818576m41.325142 125.332369z m-41.325142 0a41.325142 41.325142 0 1 0 41.325142-41.818576 41.596531 41.596531 0 0 0-41.325142 41.818576" p-id="16076"></path></svg>